<svg xmlns="http://www.w3.org/2000/svg" viewBox="0 0 22.4 24"><path d="M10.72,3.3s-.07.03-.1,0c0,0,0,0,0,0l-.83-.85c-1.44-1.46-3.8-1.48-5.26-.04-.01.01-.02.02-.04.04h0c-1.47,1.49-1.47,3.88,0,5.37l.88.9h0l5.25,5.31s.07.03.1,0c0,0,0,0,0,0l5.25-5.31.88-.9c1.47-1.49,1.47-3.88,0-5.37-1.44-1.47-3.8-1.48-5.27-.04-.01.01-.03.03-.04.04l-.83.84h0ZM12.09,8.42v1.95h-2.84v-1.95c0-.49.4-.89.89-.89h1.07c.49,0,.89.4.89.89h0ZM10.67,6.82c-.49,0-.89-.4-.89-.89s.4-.89.89-.89c.49,0,.89.4.89.89,0,.49-.4.89-.89.89Z" fill="#fff"/><path d="M1.87,16.69c-.24.04-.45.2-.55.42-.17.37-.02.81.35.99.04.02.07.03.11.04l7.73,2.74c.8.22,1.63.27,2.45.15l2.79-.44s.04,0,.06,0l3.85.8v-4.29l-1.87-.88c-.21-.1-.42-.18-.61-.26-.7-.23-1.43-.38-2.17-.43-.51,0-1.01.03-1.51.11l-.17.02-2.48.34c-.27.05-.52.21-.68.44-.15.22-.21.49-.15.75,0,.01,0,.02,0,.04.14.47.57.78,1.05.76l3.21.02v.36l-3.21-.02c-.66.01-1.24-.43-1.4-1.07,0-.01,0-.02,0-.04-.02-.1-.04-.21-.03-.32l-6.67-.24s-.08,0-.11,0Z" fill="#fff"/><rect x="19.01" y="15.91" width="2.13" height="6.75" rx=".5" ry=".5" fill="#fff"/></svg>
