<svg xmlns="http://www.w3.org/2000/svg" viewBox="0 0 24 24"><path d="M11.97.15c-3.21,0-3.61.01-4.87.07-1.26.06-2.12.26-2.87.55-.78.3-1.44.71-2.09,1.36s-1.06,1.32-1.36,2.09c-.29.75-.49,1.61-.55,2.87-.06,1.26-.07,1.66-.07,4.87s.01,3.61.07,4.87c.06,1.26.26,2.12.55,2.87.3.78.71,1.44,1.36,2.09s1.32,1.06,2.09,1.36c.75.29,1.61.49,2.87.55,1.26.06,1.66.07,4.87.07s3.61-.01,4.87-.07c1.26-.06,2.12-.26,2.87-.55.78-.3,1.44-.71,2.09-1.36s1.06-1.32,1.36-2.09c.29-.75.49-1.61.55-2.87.06-1.26.07-1.66.07-4.87s-.01-3.61-.07-4.87c-.06-1.26-.26-2.12-.55-2.87-.3-.78-.71-1.44-1.36-2.09s-1.32-1.06-2.09-1.36c-.75-.29-1.61-.49-2.87-.55-1.26-.06-1.66-.07-4.87-.07ZM11.97,2.28c3.16,0,3.53.01,4.77.07,1.15.05,1.78.24,2.19.41.55.21.94.47,1.36.89.41.41.67.81.89,1.36.16.41.36,1.04.41,2.19.06,1.24.07,1.62.07,4.77s-.01,3.53-.07,4.77c-.05,1.15-.24,1.78-.41,2.19-.21.55-.47.94-.89,1.36s-.81.67-1.36.89c-.41.16-1.04.36-2.19.41-1.24.06-1.62.07-4.77.07s-3.53-.01-4.77-.07c-1.15-.05-1.78-.24-2.19-.41-.55-.21-.94-.47-1.36-.89s-.67-.81-.89-1.36c-.16-.41-.36-1.04-.41-2.19-.06-1.24-.07-1.62-.07-4.77s.01-3.53.07-4.77c.05-1.15.24-1.78.41-2.19.21-.55.47-.94.89-1.36.41-.41.81-.67,1.36-.89.41-.16,1.04-.36,2.19-.41,1.25-.06,1.62-.07,4.77-.07Z" fill="#fff"/><path d="M11.97,15.9c-2.17,0-3.94-1.76-3.94-3.94s1.76-3.94,3.94-3.94,3.94,1.76,3.94,3.94c0,2.17-1.76,3.94-3.94,3.94ZM11.97,5.9c-3.35,0-6.07,2.72-6.07,6.07s2.72,6.07,6.07,6.07,6.07-2.72,6.07-6.07-2.72-6.07-6.07-6.07Z" fill="#fff"/><path d="M19.7,5.66c0,.78-.63,1.42-1.42,1.42s-1.42-.63-1.42-1.42.63-1.42,1.42-1.42c.78,0,1.42.64,1.42,1.42Z" fill="#fff"/></svg>
