<svg xmlns="http://www.w3.org/2000/svg" viewBox="0 0 34.117 36.562">
  <g transform="translate(-4 -1.986)">
    <path d="M22.582,5.339a.118.118,0,0,1-.171,0l-1.432-1.45a6.384,6.384,0,0,0-9.09,0h0a6.557,6.557,0,0,0,0,9.205l1.517,1.541h.012l9,9.114a.118.118,0,0,0,.171,0l9-9.114,1.517-1.541a6.557,6.557,0,0,0,0-9.205,6.386,6.386,0,0,0-9.1,0L22.588,5.333Zm2.352,8.791v3.351H20.059V14.131a1.524,1.524,0,0,1,1.523-1.523H23.41A1.524,1.524,0,0,1,24.933,14.131ZM22.5,11.389a1.523,1.523,0,1,1,1.523-1.523A1.524,1.524,0,0,1,22.5,11.389Z" transform="translate(-2.346 0)" fill="#fff"/>
    <path d="M5.06,43.894a1.24,1.24,0,0,0-.938.719,1.269,1.269,0,0,0,.792,1.761l13.251,4.7a9.868,9.868,0,0,0,4.2.25l4.782-.755a.331.331,0,0,1,.11,0l6.6,1.377v-7.36l-3.2-1.511c-.359-.171-.719-.317-1.054-.445a15.024,15.024,0,0,0-3.728-.731,14.523,14.523,0,0,0-2.589.183L23,42.116l-4.246.591a1.83,1.83,0,0,0-1.158.755,1.58,1.58,0,0,0-.25,1.285.12.12,0,0,0,.012.061,1.817,1.817,0,0,0,1.809,1.31l5.5.037v.609l-5.5-.037a2.426,2.426,0,0,1-2.406-1.834.207.207,0,0,1-.006-.061,2.025,2.025,0,0,1-.055-.542L5.255,43.882c-.055,0-.134.006-.195.012Z" transform="translate(0 -15.593)" fill="#fff"/>
    <rect width="3.655" height="11.575" rx="0.5" transform="translate(34.462 26.973)" fill="#fff"/>
  </g>
</svg>
