<svg xmlns="http://www.w3.org/2000/svg" viewBox="0 0 24 24"><path d="M19.29,3.29c.39-.39,1.02-.39,1.41,0s.39,1.02,0,1.41l-9,9c-.39.39-1.02.39-1.41,0s-.39-1.02,0-1.41L19.29,3.29Z"/><path d="M19,5h-4c-.55,0-1-.45-1-1s.45-1,1-1h5c.55,0,1,.45,1,1v5c0,.55-.45,1-1,1s-1-.45-1-1v-4Z"/><path d="M17,13.5c0-.55.45-1,1-1s1,.45,1,1v5.63c0,1.59-1.29,2.87-2.87,2.87H4.87c-1.59,0-2.87-1.29-2.87-2.87V7.87c0-1.59,1.29-2.87,2.87-2.87q4.03,0,6.09,0c.55,0,1,.45,1,1s-.45,1-1,1q-2.06,0-6.09,0c-.48,0-.87.39-.87.87v11.25c0,.48.39.87.87.87h11.25c.48,0,.87-.39.87-.87v-5.63Z"/></svg>
