<svg xmlns="http://www.w3.org/2000/svg" viewBox="0 0 100 100">
    <path d="M11.13638,26.98466l18.39346,0.47083c10.39353,0.38028,20.78706,0.76055,31.18059,1.14083  c0.39539-0.5227,0.79079-1.04539,1.18619-1.56808c0.52655,0.03665,1.05311,0.07329,1.57966,0.10994  c-0.00193-0.6635-0.00386-1.32699-0.00579-1.99049c0.39733-0.2816,0.79465-0.5632,1.19198-0.8448  c0.61334,0.1138,1.22669,0.2276,1.84004,0.34139c0.1543-0.43783,0.3086-0.87566,0.4629-1.31349  c0.97981-0.40504,1.95963-0.81008,2.93944-1.21512c0.66735,0.30474,1.33471,0.60949,2.00206,0.91423  c0.15044-0.11765,0.30089-0.23531,0.45133-0.35296c0.12344-0.02315,0.24689-0.04629,0.37032-0.06944  c0.027,0.55741,0.054,1.11483,0.08101,1.67224c-0.4494,0.08101-0.89881,0.16202-1.34821,0.24302  c0.27968,0.19095,0.55934,0.3819,0.83902,0.57284c0.14079-0.11187,0.2816-0.22374,0.4224-0.33561  c0.24687,0.88723,0.49376,1.77446,0.74064,2.6617c-0.09451,0.11958-0.18902,0.23917-0.28352,0.35875  c-0.10608-0.39925-0.21217-0.79851-0.31825-1.19776c-0.1543,0.6172-0.3086,1.23441-0.4629,1.85162  c0.24685-0.08626,0.4937-0.17252,0.74055-0.25878c0.08489,0.18656,0.1698,0.37311,0.25469,0.55967  c0.34718,0.13308,0.69435,0.26617,1.04153,0.39925c0.2411,0.37611,0.48219,0.75222,0.72329,1.12833  c0.054-0.13694,0.10801-0.27388,0.16201-0.41083c0.26424,0.1678,0.52848,0.3356,0.79272,0.50341  c0.01736-0.21988,0.03472-0.43976,0.05208-0.65964c0.28931-0.25074,0.57863-0.50148,0.86794-0.75222  c0.2411,0.2546,0.48219,0.50919,0.7233,0.76379c0.15815,0.03279,0.31631,0.06558,0.47447,0.09837  c0.02508,0.29703,0.05015,0.59406,0.07522,0.89109c-0.18901,0.09451-0.37804,0.18902-0.56705,0.28353  c-0.30667,0.48605-0.61334,0.9721-0.92002,1.45815c-0.18901-0.30281-0.37804-0.60563-0.56705-0.90845  c-0.20831,0.36068-0.41661,0.72136-0.62492,1.08204c-0.66542,0.22567-1.33085,0.45133-1.99627,0.67699  c-0.1408-0.05979-0.2816-0.11958-0.4224-0.17937c-0.23917,0.13694-0.47833,0.27388-0.71751,0.41082  c-0.51823,0.12513-1.03646,0.25026-1.5547,0.37539c0.05636,0.43548,0.11272,0.87096,0.16907,1.30643  c0.26642-0.10759,0.53282-0.21518,0.79923-0.32277c-0.02049,0.23055-0.04099,0.46109-0.06148,0.69164  c-0.37424,0.35218-0.74847,0.70436-1.12272,1.05654c-0.21989-0.08872-0.43976-0.17745-0.65965-0.26617  c-0.50919,0.46676-1.01839,0.93352-1.52758,1.40028c-0.081,0.16973-0.16201,0.33947-0.24302,0.5092  c0.15044,0.43976,0.30089,0.87952,0.45133,1.31927c-0.21217,0.027-0.42433,0.054-0.6365,0.08101  c-0.09258,0.32018-0.18516,0.64035-0.27774,0.96053c-0.3356,0.16587-0.6712,0.33175-1.00681,0.49762  c0.18902,0.48991,0.37804,0.97981,0.56705,1.46972c0.24688,0.25074,0.49377,0.50148,0.74065,0.75222  c0.38575-0.09258,0.77151-0.18516,1.15726-0.27774c-0.15302,0.3909-0.30603,0.78179-0.45905,1.17269  c0.47062-0.24431,0.94124-0.48862,1.41186-0.73293c0.32661,0.06944,0.65321,0.13887,0.97981,0.20831  c-0.02829-0.21345-0.05658-0.4269-0.08487-0.64035c0.4179,0.05529,0.8358,0.11058,1.2537,0.16587  c0.58248,0.29317,1.16498,0.58634,1.74746,0.87952c0.22952,0.37225,0.45905,0.7445,0.68857,1.11676  c0.15237,0.13694,0.30475,0.27388,0.45712,0.41083c0.0913,0.61849,0.18259,1.23698,0.27388,1.85547  c0.52592,0.60435,1.05183,1.20869,1.57774,1.81304c-0.06815,0.3266-0.1363,0.65321-0.20445,0.97981  c-0.15173,0.05915-0.30345,0.1183-0.45518,0.17745c0.11958,0.10801,0.23917,0.21602,0.35875,0.32404  c-0.16073,0.21859-0.32146,0.43718-0.48219,0.65578c-0.32532,0.20574-0.65063,0.41147-0.97595,0.61721  c0.33303,0.45261,0.66607,0.90524,0.9991,1.35785c0.31117,0.18388,0.62235,0.36775,0.93353,0.55162  c0.43976,0.01929,0.87952,0.03858,1.31927,0.05787c0.35104,0.31632,0.70206,0.63264,1.0531,0.94896  c0.0463,0.32789,0.09258,0.65578,0.13887,0.98367c0.03086,0.47448,0.06172,0.94895,0.09258,1.42342  c-0.06044,0.45776-0.12086,0.91552-0.1813,1.37328c0.24946,0.30603,0.49891,0.61206,0.74836,0.91809  c0.32789,0.19673,0.65578,0.39347,0.98367,0.5902c0.54005,0.2546,1.08012,0.50919,1.62017,0.76379  c0.3549,0.01929,0.70979,0.03857,1.06467,0.05786c0.35876,0.03472,0.7175,0.06944,1.07625,0.10415  c0.24946,0.08615,0.49892,0.1723,0.74837,0.25845c-0.43462,0.09515-0.86923,0.19031-1.30385,0.28546  c0.64806,0.07972,1.29613,0.15944,1.9442,0.23916c0.23916-0.22631,0.47833-0.45262,0.71749-0.67892  c0.6172-0.24302,1.23441-0.48605,1.85162-0.72907c0.30861-0.03472,0.6172-0.06944,0.92581-0.10416  c0.70206-0.25845,1.40414-0.51691,2.10621-0.77536c0.32018-0.3819,0.64034-0.76379,0.96053-1.14569  c-0.06172-0.73679-0.12344-1.47358-0.18516-2.21037c0.09644-0.16587,0.19287-0.33175,0.28931-0.49762  c-0.26231-0.25845-0.52462-0.51691-0.78693-0.77536c-0.3356-0.07329-0.6712-0.14659-1.00681-0.21988  c-0.054-0.71364-0.10801-1.42729-0.16201-2.14093c-0.1273-0.48991-0.2546-0.97981-0.3819-1.46972  c-0.40504-0.29703-0.81009-0.59406-1.21513-0.89109c-0.25845,0-0.51691,0-0.77536,0  c-0.28931,0.27774-0.57863,0.55548-0.86794,0.83323c-0.33176-0.31631-0.6635-0.63264-0.99525-0.94895  c0.33947-0.2276,0.67892-0.45519,1.01839-0.68279c0.34718,0.05015,0.69435,0.1003,1.04153,0.15045  c0.45133,0.1543,0.90266,0.3086,1.354,0.4629c0.30475,0.16202,0.60948,0.32403,0.91423,0.48605  c0.29704,0.32017,0.59406,0.64035,0.89109,0.96053c0.17359,0.29703,0.34718,0.59406,0.52077,0.89109  c0.25845,0.5632,0.51691,1.1264,0.77536,1.6896c0.1273,0.43976,0.2546,0.87952,0.3819,1.31927  c0.16587,0.55163,0.33175,1.10325,0.49762,1.65488c0.03472,0.4359,0.06944,0.8718,0.10416,1.3077  c-0.0733,0.05015-0.14658,0.1003-0.21988,0.15044c0.05015,0.18516,0.1003,0.37032,0.15044,0.55548  c0.09644-0.03857,0.19288-0.07715,0.28931-0.11573C94.86884,59.92717,94.93443,60.7874,95,61.64763  c-0.09644-0.33175-0.19288-0.66349-0.28931-0.99524c-0.16973-0.10029-0.33947-0.2006-0.50919-0.30089  c-0.06558,0.25074-0.13116,0.50148-0.19673,0.75222c-0.1813,0.027-0.36261,0.054-0.54391,0.08101  c-0.05786,0.25459-0.11572,0.50919-0.17358,0.76379c0.20444,0.01157,0.4089,0.02315,0.61334,0.03472  c0.20059,0.18903,0.40118,0.37804,0.60178,0.56706c0.06557,0.31247,0.13115,0.62492,0.19673,0.93738  c-0.09258,0.27388-0.18516,0.54777-0.27774,0.82165c-0.08486,0.33175-0.16974,0.66349-0.2546,0.99525  c-0.16973,0.02314-0.33946,0.04629-0.50919,0.06943c0.20445-0.29317,0.4089-0.58634,0.61335-0.87951  c0.00772-0.30475,0.01543-0.60949,0.02315-0.91423c-0.20316,0.10287-0.40633,0.20573-0.6095,0.3086  c-0.21345-0.18388-0.4269-0.36775-0.64034-0.55162c-1.51987,0.25846-3.03973,0.51691-4.5596,0.77536  c-0.36261,0.18516-0.72521,0.37032-1.08782,0.55549c-0.38961-0.08101-0.77922-0.16203-1.16883-0.24303  c-0.29317,0.13887-0.58634,0.27775-0.87952,0.41662c-0.43204-0.00771-0.86407-0.01543-1.29612-0.02315  c-0.35104,0.23531-0.70207,0.47062-1.05311,0.70593c-0.23145,0-0.4629,0-0.69436,0  c-0.15044,0.20831-0.30089,0.41662-0.45133,0.62492c-0.19673,0.02701-0.39347,0.05401-0.59019,0.08101  c0.05058,0.23986,0.10114,0.47971,0.15172,0.71957c-0.22801,0.14204-0.45604,0.28407-0.68406,0.42611  c-0.50534,0.01157-1.01067,0.02316-1.51601,0.03472c-0.47062,0.08101-0.94124,0.16202-1.41186,0.24303  c-0.22759,0.10415-0.45519,0.20831-0.68278,0.31246c-0.13887,0.2083-0.27775,0.41661-0.41662,0.62492  c-0.19673-0.13116-0.39347-0.26231-0.5902-0.39347c0.21217-0.16587,0.42433-0.33175,0.63649-0.49762  c0.13116-0.3819,0.26232-0.76379,0.39347-1.14568c-0.10801-0.3819-0.21603-0.76379-0.32404-1.14569  c0.03472-0.35875,0.06944-0.7175,0.10416-1.07625c0.25845-0.35875,0.51691-0.7175,0.77536-1.07625  c-0.1813-0.09258-0.3626-0.18516-0.54391-0.27774c0.1813-0.32018,0.36261-0.64035,0.54391-0.96053  c0.00772-0.2816,0.01543-0.5632,0.02315-0.8448c-0.11958-0.24303-0.23917-0.48605-0.35875-0.72908  c-0.15816,0.19674-0.31632,0.39347-0.47448,0.59021c-0.03857,0.2816-0.07715,0.5632-0.11572,0.8448  c-0.39732-0.35875-0.79465-0.7175-1.19197-1.07625c-0.20445-0.05014-0.40891-0.10029-0.61336-0.15044  c0.05015,0.80237,0.1003,1.60473,0.15045,2.4071c-0.28546-0.2546-0.57092-0.50919-0.85638-0.76379  c-0.063,0.57735-0.12601,1.15469-0.18902,1.73204c-0.51177,0.03214-1.02353,0.06429-1.5353,0.09644  c0.12344,0.25073,0.24689,0.50148,0.37033,0.75221c-0.43976-0.07715-0.87952-0.1543-1.31928-0.23145  c0.08487,0.24302,0.16974,0.48605,0.2546,0.72906c-0.027,0.30861-0.054,0.6172-0.081,0.92581  c-0.1273-0.43204-0.2546-0.86408-0.3819-1.29613c-0.3819-0.00385-0.76379-0.00771-1.14568-0.01157  c0.08486,0.32018,0.16972,0.64035,0.25459,0.96053c-0.21988-0.14658-0.43976-0.29317-0.65964-0.43976  c-0.01543,0.25845-0.03086,0.51691-0.04629,0.77536c-0.14273,0.10415-0.28546,0.20831-0.42819,0.31246  c0.16587,0.40504,0.33176,0.81007,0.49763,1.21512c-0.23917,0.13116-0.47834,0.26231-0.71751,0.39347  c-0.3819-0.38576-0.76379-0.7715-1.14568-1.15726c0.00385,0.11187,0.00771,0.22373,0.01157,0.3356  c0.20444,0.27003,0.4089,0.54005,0.61334,0.81008c-0.09644,0.17358-0.19287,0.34718-0.28931,0.52077  c-0.24689,0.09644-0.49377,0.19288-0.74065,0.28931c-0.25073,0.03857-0.50148,0.07716-0.75221,0.11573  c-0.30089-0.08872-0.60178-0.17745-0.90266-0.26617c-0.30089,0.14272-0.60177,0.28546-0.90266,0.42818  c-0.1813-1.21512-0.36261-2.43024-0.54391-3.64536c0.06557-0.62492,0.13115-1.24984,0.19673-1.87476  c-0.49762-0.14658-0.99524-0.29317-1.49287-0.43976c-0.55162-0.88723-1.10325-1.77446-1.65488-2.66169  c-0.59406-0.31247-1.18812-0.62492-1.78218-0.93738c-0.054-0.12344-0.10801-0.24688-0.16202-0.37032  c-0.027-1.18426-0.054-2.36852-0.08101-3.55278c-0.29703-0.41276-0.59406-0.82551-0.89109-1.23827  c-0.03267-0.96215-0.06534-1.9243-0.09801-2.88646c-3.51047,0.11156-7.02094,0.22313-10.53141,0.3347  c0.00103-0.18329,0.00205-0.36658,0.00307-0.54988c-6.20355-0.10723-12.40709-0.21446-18.61064-0.3217  c-0.23891,0.12658-0.47782,0.25316-0.71673,0.37974c-1.56011-0.15768-3.12022-0.31535-4.68033-0.47303  c-0.10759,0.39962-0.21518,0.79923-0.32277,1.19885c-0.40986,0.01537-0.81973,0.03074-1.22959,0.04611  c-0.00027-0.4235-0.00054-0.847-0.0008-1.2705c-5.61997-0.11957-11.23994-0.23914-16.85991-0.35871  C5.37912,50.16302,5.18956,49.66171,5,49.16039L11.13638,26.98466z"/>
    <polygon points="75.42461,68.75464 73.53412,69.81516 72.95007,70.56828 73.34968,70.92179 74.18734,70.39922   74.08743,69.93812 75.19406,69.56924 "/>
    <polygon points="71.12106,71.29066 71.78196,71.42899 70.61385,71.76713 "/>
    <polygon points="72.24305,74.08797 72.70415,75.02554 73.36505,75.51737 75.11721,74.44148 78.7906,74.18019   79.17485,73.48855 79.60521,74.14945 80.83479,74.19556 80.55814,73.36559 81.87994,74.05724 81.87994,73.07356 81.41885,72.62784   80.75794,73.07356 80.20463,72.33582 79.03652,71.65954 79.23633,70.50681 78.99041,70.1533 78.29877,70.92179 78.14646,69.8063   76.48772,70.5778 76.32571,71.11015 75.56191,71.44189 73.78004,74.24168 "/>
    <polygon points="88.53508,76.13216 88.25842,76.56252 88.98081,77.34638 90.22577,77.76137 92.56198,77.88432   93.89915,77.56156 94.17581,76.4703 93.25362,74.73351 92.46976,75.22534 92.59272,75.59422 91.60905,76.03995 91.08648,76.65474   90.47168,76.07069 "/>
    <polygon points="92.58133,73.50953 92.63919,74.34275 93.14838,74.5742 "/>
</svg>
