<svg xmlns="http://www.w3.org/2000/svg" viewBox="0 0 24 24"><path d="M9.19,6.88c.83-.86.84-1.91,0-2.77-1.02-1.05-2.06-2.07-3.09-3.1-.25-.24-.54-.43-.87-.53-.74-.21-1.37.02-1.9.54-.59.57-1.14,1.18-1.75,1.73-.84.76-1.22,1.69-1.18,2.66,0,1.02.17,1.91.5,2.91.89,2.63,2.3,4.96,4.06,7.09,2.63,3.2,5.83,5.66,9.65,7.29,1.19.51,2.44.85,3.74.9,1,.04,1.91-.2,2.65-.91.68-.66,1.34-1.34,2-2.02.31-.32.53-.7.59-1.16.09-.67-.18-1.2-.64-1.66-.71-.72-1.43-1.43-2.15-2.15-.36-.36-.71-.74-1.11-1.07-.75-.62-1.67-.6-2.42.02-.15.12-.28.25-.41.39-.55.55-1.09,1.09-1.64,1.64-.11.11-.22.21-.39.12-.49-.26-1-.5-1.47-.8-1.82-1.16-3.33-2.67-4.66-4.35-.57-.71-1.06-1.47-1.44-2.31-.16-.36-.16-.38.12-.66.6-.6,1.21-1.19,1.8-1.8h0Z" fill="#fff"/></svg>
