<svg xmlns="http://www.w3.org/2000/svg" viewBox="0 0 24 24"><path d="M8.03,7.6l-6.75.98-.12.02c-.18.05-.35.14-.48.28-.13.13-.23.3-.27.48-.05.18-.05.37,0,.55.05.18.15.34.28.47l4.89,4.76-1.15,6.72v.12c-.02.19.01.37.1.54.08.17.21.31.37.41s.34.16.53.17c.19,0,.37-.03.54-.12l6.04-3.17,6.02,3.17.11.05c.17.07.36.09.55.06.19-.03.36-.11.51-.22.15-.12.26-.27.32-.45.07-.18.08-.37.05-.55l-1.15-6.72,4.89-4.76.08-.09c.12-.15.2-.32.22-.5.03-.18,0-.37-.06-.55-.07-.17-.18-.33-.33-.44-.15-.12-.32-.19-.51-.22l-6.75-.98-3.02-6.12c-.09-.18-.22-.33-.39-.43-.17-.1-.36-.16-.56-.16s-.39.06-.56.16c-.17.1-.3.25-.39.43l-3.02,6.12Z"/></svg>
